<svg width="348" height="427" viewBox="0 0 348 427" fill="none" xmlns="http://www.w3.org/2000/svg">
<path d="M236.452 68.0533C244.518 58.758 250.667 47.961 254.548 36.2824C258.428 24.6038 259.964 12.2737 259.066 0C234.306 1.99866 211.322 13.6439 195.066 32.4267C187.281 41.4288 181.382 51.9014 177.718 63.2244C174.053 74.5474 172.698 86.4905 173.732 98.3467C185.81 98.4473 197.749 95.7674 208.625 90.5143C219.501 85.2613 229.023 77.576 236.452 68.0533ZM290.212 226.773C290.356 210.426 294.661 194.385 302.724 180.164C310.786 165.943 322.339 154.011 336.293 145.493C327.487 132.805 315.845 122.343 302.292 114.937C288.739 107.531 273.647 103.385 258.212 102.827C224.932 99.4133 194.212 122.24 176.506 122.24C158.799 122.24 133.839 103.253 106.106 103.68C87.9752 104.277 70.3089 109.563 54.83 119.023C39.3511 128.482 26.5881 141.792 17.7858 157.653C-19.7608 222.933 8.18582 320 45.7325 372.693C62.7992 398.507 84.1325 427.733 112.292 426.667C140.452 425.6 149.626 409.173 182.266 409.173C214.906 409.173 224.932 426.667 252.666 426.027C280.399 425.387 300.026 399.573 317.946 373.76C330.64 355.019 340.556 334.54 347.386 312.96C330.479 305.75 316.054 293.745 305.893 278.428C295.733 263.111 290.281 245.154 290.212 226.773Z" fill="black"/>
</svg>
