<svg width="512" height="512" viewBox="0 0 512 512" fill="none" xmlns="http://www.w3.org/2000/svg">
<g clip-path="url(#clip0_35_52)">
<path d="M479.807 237.547C373.865 177.579 162.217 61.1201 52.5427 2.45346C38.2707 -5.16254 21.332 6.08013 21.332 21.2268V490.667C21.332 502.421 30.9107 512 42.6654 512C46.1184 511.973 49.5112 511.094 52.5427 509.44C162.217 450.773 373.865 334.315 479.807 274.347C483.082 272.511 485.812 269.84 487.72 266.606C489.627 263.372 490.643 259.691 490.665 255.936C490.64 252.185 489.621 248.508 487.714 245.278C485.807 242.048 483.079 239.381 479.807 237.547Z" fill="#303C42"/>
<path d="M42.6686 489.75L42.4766 21.9521L273.133 255.936L42.6686 489.75Z" fill="#4FC3F7"/>
<path d="M288.109 271.146L342.7 326.528C263.58 370.374 184.283 413.901 104.812 457.109L288.109 271.146Z" fill="#F44336"/>
<path d="M104.98 54.9756C184.405 98.1067 263.645 141.577 342.698 185.386L288.127 240.768L104.98 54.9756Z" fill="#8BC34A"/>
<path d="M362.047 315.776L303.082 255.957L362.047 196.139C397.765 215.941 433.406 235.88 468.97 255.957C433.407 276.035 397.766 295.975 362.047 315.776Z" fill="#FFEB3B"/>
<path d="M479.807 237.547C373.865 177.579 162.217 61.1201 52.5427 2.45346C38.2707 -5.16254 21.332 6.08013 21.332 21.2268V490.667C21.332 502.421 30.9107 512 42.6654 512C46.1184 511.973 49.5112 511.094 52.5427 509.44C162.217 450.773 373.865 334.315 479.807 274.347C483.082 272.511 485.812 269.84 487.72 266.606C489.627 263.372 490.643 259.691 490.665 255.936C490.64 252.185 489.621 248.508 487.714 245.278C485.807 242.048 483.079 239.381 479.807 237.547Z" fill="url(#paint0_linear_35_52)"/>
</g>
<defs>
<linearGradient id="paint0_linear_35_52" x1="-66.4973" y1="205.099" x2="412.393" y2="428.416" gradientUnits="userSpaceOnUse">
<stop stop-color="white" stop-opacity="0.2"/>
<stop offset="1" stop-color="white" stop-opacity="0"/>
</linearGradient>
<clipPath id="clip0_35_52">
<rect width="512" height="512" fill="white"/>
</clipPath>
</defs>
</svg>
