<svg width="57" height="56" viewBox="0 0 57 56" fill="none" xmlns="http://www.w3.org/2000/svg">
<g clip-path="url(#clip0_2_57)">
<path d="M54.1821 45.5L48.7051 36.032C45.7449 40.6115 41.3414 44.0726 36.1922 45.867L40.5322 53.375C40.686 53.6403 40.9068 53.8606 41.1725 54.0137C41.4382 54.1668 41.7395 54.2474 42.0462 54.2474C42.3528 54.2474 42.6541 54.1668 42.9198 54.0137C43.1855 53.8606 43.4063 53.6403 43.5602 53.375L46.6051 48.125H52.6601C52.968 48.1265 53.2708 48.0466 53.5379 47.8936C53.805 47.7405 54.027 47.5197 54.1814 47.2533C54.3358 46.987 54.4172 46.6846 54.4173 46.3768C54.4175 46.0689 54.3363 45.7665 54.1821 45.5ZM7.61515 36.032L2.13815 45.5C1.98428 45.7665 1.9034 46.0689 1.90369 46.3766C1.90397 46.6844 1.9854 46.9866 2.13976 47.2528C2.29412 47.5191 2.51595 47.7399 2.78288 47.893C3.04982 48.0461 3.35241 48.1262 3.66015 48.125H9.71515L12.7601 53.375C12.9919 53.7755 13.3729 54.0678 13.8196 54.1881C14.2664 54.3084 14.7426 54.2469 15.1441 54.017C15.4116 53.8635 15.6338 53.642 15.7881 53.375L20.1281 45.867C14.9789 44.0726 10.5754 40.6115 7.61515 36.032ZM29.9101 18.34L28.1601 14.84L26.4101 18.34C26.2835 18.5916 26.098 18.8088 25.8694 18.9734C25.6408 19.1379 25.3759 19.2448 25.0971 19.285L21.3351 19.845L24.0651 22.54C24.2675 22.7368 24.4193 22.9797 24.5076 23.2478C24.5959 23.516 24.618 23.8015 24.5721 24.08L23.9251 27.86L27.2671 26.11C27.5229 25.9835 27.8043 25.9177 28.0896 25.9177C28.375 25.9177 28.6564 25.9835 28.9121 26.11L32.2551 27.86L31.6601 24.08C31.6143 23.8015 31.6364 23.516 31.7247 23.2478C31.813 22.9797 31.9648 22.7368 32.1671 22.54L34.8971 19.845L31.1521 19.25C30.8894 19.2032 30.6409 19.0968 30.4256 18.939C30.2103 18.7813 30.034 18.5764 29.9101 18.34Z" fill="#19A4C6"/>
<path d="M49.1602 22.75C49.1602 19.9922 48.617 17.2615 47.5616 14.7136C46.5063 12.1658 44.9594 9.85079 43.0094 7.90076C41.0594 5.95073 38.7443 4.40388 36.1965 3.34853C33.6487 2.29318 30.9179 1.75 28.1602 1.75C25.4024 1.75 22.6716 2.29318 20.1238 3.34853C17.576 4.40388 15.2609 5.95073 13.3109 7.90076C11.3609 9.85079 9.81403 12.1658 8.75869 14.7136C7.70334 17.2615 7.16016 19.9922 7.16016 22.75C7.16016 28.3195 9.37265 33.661 13.3109 37.5992C17.2492 41.5375 22.5906 43.75 28.1602 43.75C33.7297 43.75 39.0711 41.5375 43.0094 37.5992C46.9477 33.661 49.1602 28.3195 49.1602 22.75ZM39.8852 19.88L35.2832 24.395L36.3682 30.765C36.4306 31.0931 36.3979 31.4322 36.2739 31.7423C36.1498 32.0524 35.9397 32.3205 35.6682 32.515C35.3724 32.7289 35.0172 32.845 34.6522 32.847C34.3651 32.8455 34.0828 32.7734 33.8302 32.637L28.1602 29.61L22.4902 32.602C22.2135 32.7375 21.906 32.7975 21.5988 32.7761C21.2915 32.7547 20.9953 32.6525 20.7402 32.48C20.4686 32.2855 20.2585 32.0174 20.1344 31.7073C20.0104 31.3972 19.9777 31.0581 20.0402 30.73L21.1252 24.36L16.4352 19.88C16.1994 19.6528 16.0321 19.364 15.9523 19.0465C15.8724 18.7289 15.8833 18.3954 15.9836 18.0837C16.0839 17.772 16.2697 17.4947 16.5197 17.2834C16.7698 17.072 17.0741 16.935 17.3982 16.888L23.7502 15.96L26.5852 10.167C26.7285 9.87113 26.9522 9.6216 27.2308 9.447C27.5093 9.27241 27.8314 9.17981 28.1602 9.17981C28.4889 9.17981 28.811 9.27241 29.0896 9.447C29.3681 9.6216 29.5919 9.87113 29.7352 10.167L32.5702 15.96L38.9232 16.887C39.2473 16.934 39.5518 17.0711 39.8019 17.2826C40.052 17.4941 40.2377 17.7715 40.3379 18.0834C40.4382 18.3952 40.4489 18.7289 40.3688 19.0465C40.2888 19.3641 40.1212 19.6529 39.8852 19.88Z" fill="#19A4C6"/>
</g>
<defs>
<clipPath id="clip0_2_57">
<rect width="56" height="56" fill="white" transform="translate(0.160156)"/>
</clipPath>
</defs>
</svg>
