<svg width="57" height="56" viewBox="0 0 57 56" fill="none" xmlns="http://www.w3.org/2000/svg">
<g clip-path="url(#clip0_2_65)">
<path d="M19.6136 32.043H16.4106C15.576 32.0456 14.7763 32.3783 14.1861 32.9685C13.5959 33.5587 13.2632 34.3584 13.2606 35.193V48.423C13.2606 50.173 14.6786 51.573 16.4106 51.573H19.6136V32.043ZM43.1856 37.783L40.2806 48.248C40.0194 49.2033 39.4514 50.0462 38.6642 50.647C37.8769 51.2478 36.9139 51.5732 35.9236 51.573H22.2386V32.043L28.0136 23.871C28.3179 23.4445 28.7195 23.0966 29.185 22.8561C29.6505 22.6156 30.1666 22.4894 30.6906 22.488C32.5456 22.488 33.9636 24.011 33.9636 25.761C33.9636 26.058 33.9286 26.356 33.8406 26.653L32.3186 32.043H38.8286C41.8206 32.043 43.9906 34.896 43.1856 37.783ZM10.9546 11.899L12.2686 14.56C12.3926 14.81 12.6306 14.986 12.9086 15.026L15.8476 15.453C16.0043 15.4761 16.1514 15.5425 16.2724 15.6447C16.3933 15.747 16.4833 15.881 16.5322 16.0316C16.5811 16.1823 16.5869 16.3436 16.5489 16.4974C16.511 16.6512 16.4309 16.7913 16.3176 16.902L14.1916 18.974C14.0931 19.0702 14.0193 19.1889 13.9767 19.3199C13.934 19.4508 13.9237 19.5902 13.9466 19.726L14.4486 22.652C14.4753 22.8083 14.4578 22.9689 14.3981 23.1158C14.3383 23.2626 14.2387 23.3899 14.1104 23.4831C13.9822 23.5763 13.8304 23.6317 13.6723 23.6432C13.5141 23.6547 13.3559 23.6217 13.2156 23.548L10.5866 22.168C10.4646 22.1044 10.3291 22.0711 10.1916 22.0711C10.054 22.0711 9.91852 22.1044 9.79657 22.168L7.16657 23.548C7.0262 23.6217 6.86801 23.6547 6.70987 23.6432C6.55174 23.6317 6.39996 23.5763 6.2717 23.4831C6.14344 23.3899 6.0438 23.2626 5.98405 23.1158C5.9243 22.9689 5.90682 22.8083 5.93357 22.652L6.43557 19.726C6.45891 19.5902 6.4488 19.4507 6.40611 19.3197C6.36342 19.1886 6.28944 19.07 6.19057 18.974L4.06757 16.902C3.95395 16.7913 3.87358 16.651 3.83553 16.497C3.79749 16.343 3.8033 16.1814 3.85231 16.0306C3.90132 15.8797 3.99156 15.7456 4.11284 15.6433C4.23412 15.5411 4.38159 15.4748 4.53857 15.452L7.47657 15.026C7.61292 15.0057 7.74232 14.9527 7.85376 14.8715C7.9652 14.7904 8.05536 14.6835 8.11657 14.56L9.43257 11.9C9.50238 11.7575 9.61074 11.6375 9.74536 11.5536C9.87997 11.4696 10.0354 11.4251 10.1941 11.4251C10.3527 11.4251 10.5082 11.4696 10.6428 11.5536C10.7774 11.6375 10.8858 11.7575 10.9556 11.9L10.9546 11.899ZM29.0726 4.89899L30.3866 7.55999C30.5106 7.80999 30.7486 7.98599 31.0266 8.02599L33.9656 8.45299C34.1223 8.47608 34.2694 8.54249 34.3904 8.64473C34.5113 8.74698 34.6013 8.88099 34.6502 9.03165C34.6991 9.18231 34.7049 9.34363 34.6669 9.49741C34.629 9.65119 34.5489 9.79132 34.4356 9.90199L32.3106 11.974C32.2121 12.0702 32.1383 12.1889 32.0956 12.3199C32.053 12.4508 32.0427 12.5902 32.0656 12.726L32.5686 15.652C32.5955 15.8084 32.578 15.9692 32.5182 16.1162C32.4585 16.2632 32.3587 16.3906 32.2303 16.4838C32.1019 16.5771 31.9499 16.6325 31.7916 16.6438C31.6333 16.6552 31.475 16.622 31.3346 16.548L28.7056 15.168C28.5836 15.1044 28.4481 15.0711 28.3106 15.0711C28.173 15.0711 28.0375 15.1044 27.9156 15.168L25.2856 16.548C25.1452 16.6217 24.987 16.6547 24.8289 16.6432C24.6707 16.6317 24.519 16.5763 24.3907 16.4831C24.2624 16.3899 24.1628 16.2626 24.1031 16.1158C24.0433 15.9689 24.0258 15.8083 24.0526 15.652L24.5546 12.726C24.5779 12.5902 24.5678 12.4507 24.5251 12.3197C24.4824 12.1886 24.4084 12.07 24.3096 11.974L22.1866 9.90199C22.073 9.79129 21.9926 9.65101 21.9545 9.49701C21.9165 9.34301 21.9223 9.18143 21.9713 9.03057C22.0203 8.8797 22.1106 8.74555 22.2318 8.6433C22.3531 8.54105 22.5006 8.47478 22.6576 8.45199L25.5966 8.02599C25.7331 8.00607 25.8626 7.95323 25.9741 7.87204C26.0856 7.79086 26.1757 7.68376 26.2366 7.55999L27.5496 4.89999C27.6194 4.75753 27.7277 4.6375 27.8624 4.55356C27.997 4.46961 28.1524 4.42511 28.3111 4.42511C28.4697 4.42511 28.6252 4.46961 28.7598 4.55356C28.8944 4.6375 29.0028 4.75653 29.0726 4.89899ZM47.1906 11.899L48.5046 14.56C48.6286 14.81 48.8666 14.986 49.1446 15.026L52.0826 15.453C52.2393 15.4759 52.3866 15.5422 52.5077 15.6444C52.6288 15.7466 52.7189 15.8806 52.7679 16.0313C52.8169 16.182 52.8228 16.3433 52.7849 16.4972C52.747 16.651 52.6669 16.7913 52.5536 16.902L50.4276 18.974C50.3291 19.0702 50.2553 19.1889 50.2127 19.3199C50.17 19.4508 50.1597 19.5902 50.1826 19.726L50.6846 22.652C50.7113 22.8083 50.6938 22.9689 50.6341 23.1158C50.5743 23.2626 50.4747 23.3899 50.3464 23.4831C50.2182 23.5763 50.0664 23.6317 49.9083 23.6432C49.7501 23.6547 49.5919 23.6217 49.4516 23.548L46.8226 22.168C46.7005 22.1042 46.5648 22.0709 46.4271 22.0709C46.2893 22.0709 46.1536 22.1042 46.0316 22.168L43.4036 23.548C43.2632 23.622 43.1049 23.6552 42.9466 23.6438C42.7883 23.6325 42.6363 23.5771 42.5079 23.4838C42.3794 23.3906 42.2797 23.2632 42.2199 23.1162C42.1601 22.9692 42.1427 22.8084 42.1696 22.652L42.6716 19.726C42.6949 19.5902 42.6848 19.4507 42.6421 19.3197C42.5994 19.1886 42.5254 19.07 42.4266 18.974L40.3006 16.902C40.187 16.7914 40.1066 16.6512 40.0685 16.4972C40.0304 16.3433 40.0361 16.1818 40.085 16.0309C40.1339 15.8801 40.224 15.7459 40.3452 15.6436C40.4663 15.5413 40.6137 15.4749 40.7706 15.452L43.7096 15.026C43.8461 15.0061 43.9756 14.9532 44.0871 14.872C44.1986 14.7909 44.2887 14.6838 44.3496 14.56L45.6636 11.899C45.7339 11.7567 45.8426 11.6368 45.9774 11.553C46.1123 11.4693 46.2678 11.4249 46.4266 11.4249C46.5853 11.4249 46.7409 11.4693 46.8757 11.553C47.0106 11.6368 47.1203 11.7567 47.1906 11.899Z" fill="#19A4C6"/>
</g>
<defs>
<clipPath id="clip0_2_65">
<rect width="56" height="56" fill="white" transform="translate(0.310547)"/>
</clipPath>
</defs>
</svg>
