<svg width="56" height="56" viewBox="0 0 56 56" fill="none" xmlns="http://www.w3.org/2000/svg">
<g clip-path="url(#clip0_2_49)">
<g clip-path="url(#clip1_2_49)">
<path fill-rule="evenodd" clip-rule="evenodd" d="M23.043 5.189C24.5819 4.41952 26.2789 4.01892 27.9995 4.01892C29.7201 4.01892 31.4171 4.41952 32.956 5.189L44.869 11.145C45.9349 11.678 46.8314 12.4973 47.4579 13.5112C48.0843 14.525 48.4161 15.6932 48.416 16.885V34.494C48.416 38.315 46.448 41.867 43.207 43.893L31.401 51.272C30.3811 51.9094 29.2027 52.2474 28 52.2474C26.7973 52.2474 25.6189 51.9094 24.599 51.272L12.792 43.892C11.198 42.8958 9.88365 41.5105 8.97242 39.8665C8.06119 38.2225 7.58307 36.3737 7.58301 34.494V16.884C7.58309 15.6924 7.91495 14.5244 8.54142 13.5107C9.1679 12.4971 10.0642 11.6779 11.13 11.145L23.043 5.189ZM36.237 24.57C36.5652 24.2418 36.7496 23.7967 36.7496 23.3325C36.7496 22.8683 36.5652 22.4232 36.237 22.095C35.9088 21.7668 35.4637 21.5824 34.9995 21.5824C34.5354 21.5824 34.0902 21.7668 33.762 22.095L25.666 30.191L22.237 26.761C22.0744 26.5985 21.8814 26.4696 21.669 26.3817C21.4567 26.2937 21.229 26.2485 20.9992 26.2486C20.7693 26.2486 20.5417 26.2939 20.3293 26.3819C20.117 26.4699 19.924 26.5989 19.7615 26.7615C19.599 26.9241 19.4701 27.1171 19.3822 27.3295C19.2942 27.5419 19.249 27.7695 19.2491 27.9994C19.2491 28.2292 19.2944 28.4568 19.3824 28.6692C19.4705 28.8815 19.5994 29.0745 19.762 29.237L24.429 33.903C24.5914 34.0656 24.7843 34.1947 24.9967 34.2827C25.209 34.3707 25.4366 34.416 25.6665 34.416C25.8964 34.416 26.124 34.3707 26.3363 34.2827C26.5487 34.1947 26.7416 34.0656 26.904 33.903L36.237 24.57Z" fill="#19A4C6"/>
</g>
</g>
<defs>
<clipPath id="clip0_2_49">
<rect width="56" height="56" fill="white"/>
</clipPath>
<clipPath id="clip1_2_49">
<rect width="56" height="56" fill="white"/>
</clipPath>
</defs>
</svg>
